<svg xmlns="http://www.w3.org/2000/svg" xmlns:xlink="http://www.w3.org/1999/xlink" width="1024" zoomAndPan="magnify" viewBox="0 0 768 576" height="768" preserveAspectRatio="xMidYMid meet" version="1.0"><defs><clipPath id="id1"><path d="M 508.710938 254.03125 L 584.460938 254.03125 L 584.460938 288.53125 L 508.710938 288.53125 Z M 508.710938 254.03125 " clip-rule="nonzero"/></clipPath><clipPath id="id2"><path d="M 402 367 L 471 367 L 471 423 L 402 423 Z M 402 367 " clip-rule="nonzero"/></clipPath><clipPath id="id3"><path d="M 402.332031 366.644531 L 476.488281 382.105469 L 466.996094 427.628906 L 392.84375 412.167969 Z M 402.332031 366.644531 " clip-rule="nonzero"/></clipPath><clipPath id="id4"><path d="M 392.863281 412.0625 L 467.019531 427.523438 L 476.507812 382.003906 L 402.355469 366.542969 Z M 392.863281 412.0625 " clip-rule="nonzero"/></clipPath><clipPath id="id5"><path d="M 210 364 L 279 364 L 279 435 L 210 435 Z M 210 364 " clip-rule="nonzero"/></clipPath><clipPath id="id6"><path d="M 293.605469 383.75 L 227.316406 443.511719 L 206.222656 420.117188 L 272.511719 360.355469 Z M 293.605469 383.75 " clip-rule="nonzero"/></clipPath><clipPath id="id7"><path d="M 293.605469 383.75 L 227.316406 443.511719 L 206.222656 420.117188 L 272.511719 360.355469 Z M 293.605469 383.75 " clip-rule="nonzero"/></clipPath><clipPath id="id8"><path d="M 178 156 L 264 156 L 264 188 L 178 188 Z M 178 156 " clip-rule="nonzero"/></clipPath><clipPath id="id9"><path d="M 181.578125 153.132812 L 266.085938 170.386719 L 261.28125 193.902344 L 176.777344 176.644531 Z M 181.578125 153.132812 " clip-rule="nonzero"/></clipPath><clipPath id="id10"><path d="M 266.246094 170.421875 L 181.738281 153.164062 L 176.9375 176.679688 L 261.441406 193.933594 Z M 266.246094 170.421875 " clip-rule="nonzero"/></clipPath><clipPath id="id11"><path d="M 229 163 L 506 163 L 506 366 L 229 366 Z M 229 163 " clip-rule="nonzero"/></clipPath><clipPath id="id12"><path d="M 196.648438 161.921875 L 488.375 114.847656 L 525.652344 345.859375 L 233.925781 392.933594 Z M 196.648438 161.921875 " clip-rule="nonzero"/></clipPath><clipPath id="id13"><path d="M 196.648438 161.921875 L 488.375 114.847656 L 525.652344 345.859375 L 233.925781 392.933594 Z M 196.648438 161.921875 " clip-rule="nonzero"/></clipPath><clipPath id="id14"><path d="M 395 119 L 491 119 L 491 180 L 395 180 Z M 395 119 " clip-rule="nonzero"/></clipPath><clipPath id="id15"><path d="M 391.59375 168.605469 L 472.15625 106.039062 L 494.234375 134.472656 L 413.675781 197.035156 Z M 391.59375 168.605469 " clip-rule="nonzero"/></clipPath><clipPath id="id16"><path d="M 391.59375 168.605469 L 472.15625 106.039062 L 494.234375 134.472656 L 413.675781 197.035156 Z M 391.59375 168.605469 " clip-rule="nonzero"/></clipPath></defs><g clip-path="url(#id1)"><path fill="#ffd168" d="M 566.28125 283.125 C 566.355469 281.589844 566.386719 279.996094 567.210938 278.660156 C 567.988281 277.394531 569.058594 276.3125 570.105469 275.027344 C 567.972656 275.042969 565.996094 275.441406 564.03125 275.882812 C 559.511719 276.894531 555.453125 278.863281 551.757812 281.660156 C 549.800781 283.140625 547.679688 284.414062 545.589844 285.710938 C 541.839844 288.035156 537.671875 288.710938 533.355469 288.492188 C 528.570312 288.257812 523.894531 287.347656 519.363281 285.722656 C 515.941406 284.496094 512.734375 282.855469 509.730469 280.808594 C 508.378906 279.890625 508.5 277.65625 510.011719 276.984375 C 510.539062 276.753906 511.34375 276.980469 511.964844 277.171875 C 513.515625 277.640625 515.066406 278.140625 516.566406 278.75 C 520.691406 280.4375 525.023438 281.269531 529.417969 281.511719 C 533.796875 281.75 538.226562 281.949219 542.523438 280.59375 C 545.820312 279.554688 548.695312 277.738281 551.507812 275.808594 C 552.457031 275.152344 553.363281 274.441406 554.289062 273.753906 C 558.542969 270.582031 563.296875 268.664062 568.570312 268.011719 C 568.820312 267.980469 569.0625 267.921875 569.523438 267.832031 C 569.207031 267.460938 569.023438 267.183594 568.78125 266.96875 C 567.460938 265.777344 566.105469 264.621094 564.800781 263.410156 C 564.148438 262.800781 563.578125 262.113281 562.96875 261.460938 C 561.328125 259.703125 561.300781 257.785156 562.382812 255.734375 C 562.632812 255.261719 562.746094 254.710938 562.96875 254.039062 C 563.320312 254.28125 563.558594 254.386719 563.707031 254.5625 C 567.992188 259.65625 573.269531 263.464844 579.152344 266.492188 C 580.226562 267.042969 581.324219 267.539062 582.414062 268.0625 C 584.367188 269 584.519531 269.269531 584.316406 271.4375 C 584.308594 271.542969 584.269531 271.644531 584.253906 271.746094 C 583.492188 276.476562 583.019531 276.03125 579.601562 276.960938 C 578.035156 277.390625 576.445312 277.734375 574.90625 278.257812 C 572.246094 279.160156 569.882812 280.597656 567.835938 282.535156 C 567.480469 282.867188 567.058594 283.125 566.664062 283.410156 C 566.539062 283.308594 566.410156 283.214844 566.28125 283.125 Z M 566.28125 283.125 " fill-opacity="1" fill-rule="nonzero"/></g><g clip-path="url(#id2)"><g clip-path="url(#id3)"><g clip-path="url(#id4)"><path fill="#d799e1" d="M 441.46875 421.308594 C 441.429688 420.679688 441.007812 419.832031 441.921875 419.378906 C 441.941406 419.246094 441.972656 419.121094 442.007812 418.988281 C 442.03125 418.628906 441.875 418.335938 441.492188 418.117188 C 440.929688 417.898438 440.527344 417.558594 440.539062 416.894531 C 440.003906 414.363281 440.878906 412.617188 443.203125 411.34375 C 445.359375 410.160156 447.335938 408.628906 449.425781 407.234375 C 449.203125 407.011719 449.15625 406.921875 449.09375 406.910156 C 448.480469 406.78125 447.863281 406.648438 447.242188 406.546875 C 441.5 405.613281 436.085938 403.660156 430.980469 400.921875 C 420.359375 395.25 411.996094 387.027344 404.855469 377.476562 C 404.042969 376.394531 402.945312 375.261719 403.503906 373.597656 C 403.582031 373.359375 403.265625 372.941406 403.054688 372.664062 C 402.34375 371.734375 402.371094 370.65625 402.371094 369.574219 C 402.367188 368.75 402.273438 367.699219 403.011719 367.351562 C 404.007812 366.871094 404.59375 367.90625 405.164062 368.566406 C 410.792969 375.027344 416.871094 381.003906 423.832031 386.042969 C 427.539062 388.195312 431.242188 390.355469 434.734375 392.855469 C 436.976562 393.636719 439.222656 394.410156 441.460938 395.191406 C 441.8125 395.265625 442.15625 395.328125 442.503906 395.402344 C 443.410156 395.511719 444.304688 395.617188 445.207031 395.730469 C 447.007812 396.273438 448.757812 396.632812 450.675781 395.9375 C 451.597656 395.605469 452.777344 395.988281 453.84375 396.058594 C 453.851562 396.054688 453.855469 396.046875 453.863281 396.039062 C 453.960938 395.953125 454.042969 395.84375 454.109375 395.734375 C 454.484375 395.828125 454.761719 395.671875 454.992188 395.378906 C 454.183594 394.816406 453.355469 394.269531 452.566406 393.683594 C 448.917969 390.960938 448.925781 390.953125 447.730469 386.824219 C 447.367188 385.558594 447.648438 383.265625 448.285156 383 C 449.484375 382.496094 450.355469 383.402344 451.246094 383.921875 C 456.46875 386.960938 461.535156 390.234375 466.480469 393.710938 C 468.019531 394.796875 469.300781 395.9375 470.128906 397.8125 C 470.867188 399.476562 470.917969 400.976562 470.964844 402.691406 C 471.089844 407.570312 470.976562 408.019531 466.691406 409.84375 C 459.550781 412.882812 452.671875 416.449219 445.949219 420.320312 C 444.9375 420.90625 443.902344 421.464844 442.855469 421.996094 C 442.125 422.347656 441.511719 422.066406 441.46875 421.308594 Z M 427.5625 390.675781 C 427.578125 390.675781 427.589844 390.6875 427.605469 390.691406 C 427.574219 390.660156 427.542969 390.640625 427.511719 390.613281 C 427.535156 390.640625 427.558594 390.660156 427.5625 390.675781 Z M 427.5625 390.675781 " fill-opacity="1" fill-rule="nonzero"/></g></g></g><g clip-path="url(#id5)"><g clip-path="url(#id6)"><g clip-path="url(#id7)"><path fill="#f1bdd9" d="M 274.011719 364.21875 C 275.632812 363.984375 276.140625 364.976562 276.554688 365.988281 C 277.722656 368.773438 278.34375 371.671875 278.074219 374.738281 C 277.214844 384.511719 273.800781 393.433594 268.363281 401.574219 C 262.792969 409.917969 255.300781 415.945312 245.765625 419.230469 C 241.277344 420.777344 236.707031 422.082031 232.011719 423.542969 C 232.453125 423.789062 232.972656 424.144531 233.546875 424.402344 C 237.4375 426.1875 237.949219 426.972656 237.769531 431.308594 C 237.734375 432.277344 237.519531 433.238281 237.355469 434.464844 C 236.4375 434.203125 235.773438 434.035156 235.121094 433.828125 C 228.101562 431.605469 221.121094 429.257812 214.035156 427.238281 C 212.320312 426.746094 211.601562 425.820312 211.199219 424.449219 C 210.398438 421.691406 210.796875 418.839844 211.4375 416.121094 C 211.660156 415.167969 212.894531 414.300781 213.84375 413.660156 C 220.820312 408.992188 227.304688 403.734375 233.074219 397.644531 C 234.867188 395.742188 236.378906 393.578125 238.167969 391.355469 C 238.945312 391.757812 239.175781 392.777344 239.324219 393.683594 C 240.03125 397.925781 239.957031 402.054688 236.957031 405.621094 C 235.535156 407.304688 234.132812 409 232.695312 410.667969 C 232.058594 411.414062 231.34375 412.09375 230.511719 412.96875 C 237.023438 413.535156 254.648438 403.820312 261.179688 396.222656 C 269.128906 386.988281 273.207031 376.199219 274.011719 364.21875 Z M 274.011719 364.21875 " fill-opacity="1" fill-rule="nonzero"/></g></g></g><g clip-path="url(#id8)"><g clip-path="url(#id9)"><g clip-path="url(#id10)"><path fill="#84cd6d" d="M 195.304688 164.511719 C 196.148438 163.730469 196.980469 162.9375 197.839844 162.167969 C 198.589844 161.492188 198.847656 160.726562 198.601562 159.703125 C 198.300781 158.429688 197.992188 157.207031 196.800781 156.324219 C 196.421875 156.597656 196.039062 156.871094 195.65625 157.144531 C 190.550781 160.824219 185.464844 164.523438 180.328125 168.164062 C 178.613281 169.378906 178.257812 170.300781 179.082031 172.246094 C 179.339844 172.851562 179.574219 173.460938 179.824219 174.074219 C 180.386719 175.441406 181.214844 176.519531 182.769531 176.765625 C 185.339844 177.167969 187.90625 177.570312 190.476562 177.957031 C 193.917969 178.484375 197.171875 179.609375 200.332031 181.046875 C 200.765625 181.238281 201.210938 181.410156 201.929688 181.714844 C 202.015625 180.945312 202.230469 180.347656 202.101562 179.839844 C 201.851562 178.84375 201.40625 177.898438 201.050781 176.929688 C 200.667969 175.902344 199.945312 175.195312 198.988281 174.714844 C 196.832031 173.640625 194.671875 172.5625 192.390625 171.425781 C 192.589844 171.273438 192.742188 171.085938 192.929688 171.035156 C 202.195312 168.679688 211.550781 167.355469 221.011719 169.210938 C 226.65625 170.316406 232.183594 172.050781 237.417969 174.484375 C 242.800781 176.984375 248.113281 179.65625 253.367188 182.417969 C 255.273438 183.425781 256.972656 184.859375 258.6875 186.207031 C 260.175781 187.378906 260.660156 187.449219 262.121094 186.207031 C 262.503906 185.894531 262.84375 185.542969 263.230469 185.183594 C 263.003906 183.582031 262.167969 182.355469 261.058594 181.273438 C 258.730469 179.003906 256.023438 177.265625 253.25 175.65625 C 249.113281 173.246094 244.945312 170.867188 240.695312 168.664062 C 235.777344 166.117188 230.523438 164.375 225.1875 163.011719 C 217.546875 161.054688 209.828125 161.265625 202.136719 163.019531 C 199.894531 163.53125 197.679688 164.152344 195.449219 164.722656 C 195.398438 164.648438 195.351562 164.582031 195.304688 164.511719 Z M 195.304688 164.511719 " fill-opacity="1" fill-rule="nonzero"/></g></g></g><g clip-path="url(#id11)"><g clip-path="url(#id12)"><g clip-path="url(#id13)"><path fill="#b7edff" d="M 243.359375 220.554688 C 222.140625 258.449219 221.820312 317.730469 264.164062 349.476562 C 306.503906 381.222656 364.328125 356.738281 407.914062 356.589844 C 451.5 356.4375 503.910156 347.980469 505.097656 287.171875 C 506.335938 226.355469 478.398438 215.710938 399.070312 185.769531 C 319.742188 155.828125 284.0625 147.816406 243.359375 220.554688 Z M 243.359375 220.554688 " fill-opacity="1" fill-rule="nonzero"/></g></g></g><g clip-path="url(#id14)"><g clip-path="url(#id15)"><g clip-path="url(#id16)"><path fill="#ffa687" d="M 463.589844 129.253906 C 459.582031 127.085938 458.433594 124.238281 459.703125 119.984375 C 467.175781 121.648438 474.675781 123.320312 482.167969 125.007812 C 482.800781 125.152344 483.414062 125.421875 484.027344 125.667969 C 488.855469 127.582031 490.445312 130.148438 490.164062 135.402344 C 490.082031 136.96875 489.492188 137.917969 487.996094 138.660156 C 483.527344 140.886719 479.074219 143.160156 474.765625 145.683594 C 468.972656 149.082031 463.503906 152.964844 459.324219 158.359375 C 459.222656 158.492188 458.996094 158.515625 458.640625 158.660156 C 457.96875 157.691406 456.640625 157.148438 456.691406 155.585938 C 456.699219 155.277344 456.460938 154.933594 456.265625 154.660156 C 454.507812 152.183594 454.308594 150.039062 456.121094 147.75 C 457.988281 145.398438 460.15625 143.285156 462.296875 140.949219 C 461.925781 140.929688 461.496094 140.800781 461.136719 140.914062 C 451.242188 144.050781 441.324219 147.261719 432.726562 153.304688 C 427.019531 157.308594 421.570312 161.710938 416.175781 166.148438 C 411.304688 170.160156 406.246094 174.015625 402.332031 179.066406 C 401.617188 179.996094 400.667969 180.132812 399.929688 179.257812 C 398.449219 177.476562 397.015625 175.644531 395.730469 173.71875 C 395.027344 172.65625 395.59375 171.476562 396.296875 170.566406 C 398.601562 167.589844 400.785156 164.492188 403.363281 161.773438 C 410.65625 154.050781 419.21875 147.820312 427.894531 141.785156 C 434.394531 137.261719 441.714844 134.457031 449.34375 132.511719 C 453.171875 131.535156 457.050781 130.726562 460.90625 129.84375 C 461.617188 129.671875 462.335938 129.523438 463.589844 129.253906 Z M 463.589844 129.253906 " fill-opacity="1" fill-rule="nonzero"/></g></g></g></svg>